<?xml version="1.0" encoding="utf-8"?>
<!-- Generator: Adobe Illustrator 27.1.1, SVG Export Plug-In . SVG Version: 6.00 Build 0)  -->
<svg version="1.1" id="Layer_1" xmlns="http://www.w3.org/2000/svg" xmlns:xlink="http://www.w3.org/1999/xlink" x="0px" y="0px"
	 viewBox="0 0 512 512" style="enable-background:new 0 0 512 512;" xml:space="preserve">
<style type="text/css">
	.st0{fill:#DBAD14;}
	.st1{fill:#FB2D17;}
</style>
<g>
	<g>
		<path class="st0" d="M461.14,30.98h-28.76L416.97,0H96.3L80.89,30.98H50.86c-3.76,0-6.83,3.06-6.83,6.82v436.4
			c0,3.76,3.06,6.82,6.83,6.82h28.28L94.54,512h320.67l15.41-30.98h30.52c3.76,0,6.82-3.06,6.82-6.82V37.8
			C467.97,34.04,464.91,30.98,461.14,30.98z M450.14,38.66l-77.1,86.31l-14.29-5.75l58.04-80.56H450.14z M389.51,139.87l16.45,6.62
			l-35.26,25.83l2.22,0.89c0.52,0.21,0.92,0.6,1.14,1.09l35.81-26.24l0.66,0.26c0.52,0.21,0.86,0.71,0.86,1.27v16.33l-37.13,21.63
			v4.14l37.13-21.63v16.54l-37.13,16.71v3.94l37.13-16.71v14.87l-37.13,12.23v3.77l37.13-12.23v13.75l-37.13,8.04v3.67l37.13-8.04
			v13.06l-37.13,4.05v3.61l37.13-4.05v12.72l-37.13,0.15v3.58l37.13-0.15v12.7l-37.13-3.75v3.6l37.13,3.75v13.02l-37.13-7.74v1.61
			c0,0.78-0.42,1.46-1.05,1.83l38.17,7.96v13.68l-66.54-21.33h-11.74l78.27,25.09v14.77l-90.48-39.86h-8.9l99.38,43.78v16.39
			l-102.97-58.91c-0.12,0.27-0.2,0.57-0.2,0.88v3.13l103.17,59.02v13.2c0,0.56-0.33,1.05-0.86,1.26l-3.27,1.31l-99.04-71.36v4.42
			l95.11,68.53l-16.05,6.46l-79.06-70.63v4.81l75.35,67.31l-14.28,5.75l-61.07-67.29v5.34l57.52,63.38l-13.08,5.26l-44.45-60.67
			v6.06l41.02,55.99l-12.31,4.95L308.22,344v7.12l25.35,43.51l-11.88,4.78l-15.24-33.87l-3.33,1.34l15.24,33.87l-11.77,4.74
			l-11.63-35.33l-3.33,1.34l11.63,35.33l-11.96,4.81l-7.97-36.8l-3.37,1.36l7.97,36.8l-12.45,5.01l-4.4-40.33
			c-0.15-0.29-0.24-0.62-0.24-0.98v-1.21l-9.09-83.3l9.09,41.94v-16.91l-5.6-25.82l5.6,16.99v-11.46l-2.18-6.61l2.18,4.84v-74.31
			l-2.45,5.56l2.45-7.63v-11.74l-5.84,18.22l5.84-28.03v-17.58l-9.35,44.88l13.23-130.86l12.96,5.21l-7.69,36.92l3.38,1.36
			l7.69-36.92l12.42,5l-11.36,35.44l3.33,1.34l11.36-35.44l12.21,4.91l-14.97,33.99l3.32,1.34l14.97-33.99l12.3,4.95l-18.61,32.53
			l3.35,1.35l18.61-32.53l12.71,5.12l-22.35,31.02l3.42,1.38l22.35-31.02l13.48,5.43l-26.3,29.44l3.54,1.42l26.3-29.44l14.68,5.91
			l-30.55,27.73l3.69,1.49L389.51,139.87z M412.38,38.66l-57.05,79.18l-13.48-5.43l42.19-73.75H412.38z M379.91,38.66l-41.42,72.4
			l-13.05-5.25l29.58-67.15H379.91z M351.1,38.66l-28.99,65.81l-12.95-5.21l19.42-60.59H351.1z M324.82,38.66l-18.99,59.25
			l-13.18-5.3l11.24-53.95H324.82z M300.23,38.66l-10.96,52.59l-13.74-5.53l4.76-47.06H300.23z M255.14,425.52l-13.42-5.4
			l12.9-127.54L255.14,425.52z M222.35,412.32l-12-4.83l11.48-35.82l-3.31-1.43l-11.51,35.91l-11.79-4.75l15.25-34.63l-3.29-1.42
			l-15.29,34.71l-11.89-4.78l21.07-36.83l0-7.22l-24.43,42.71l-12.28-4.94l36.72-50.97l0-6.14l-40.15,55.73l-13.02-5.24l26.89-30.1
			c-0.22-0.01-0.45-0.06-0.67-0.15l-2.99-1.14l-26.76,29.96l-14.19-5.71l30.92-28.06l-3.76-1.43l-30.85,28l-15.91-6.41l35.38-25.92
			l-4-1.52l-35.3,25.86l-5.21-2.1c-0.52-0.21-0.86-0.71-0.86-1.27v-11.24l37.13-21.63v-4.15l-37.13,21.63V330.4l37.13-16.7v-3.93
			l-37.13,16.71v-14.93l37.13-12.23v-3.77l-37.13,12.23v-13.81l37.13-8.05v-3.66l-37.13,8.04v-13.11l37.13-4.05v-3.61l-37.13,4.05
			v-12.77l37.13-0.15v-3.58l-37.13,0.15v-12.76l37.13,3.75v-3.61l-37.13-3.75v-13.07l37.13,7.74v-3.66l-37.13-7.74v-13.75
			l37.13,11.9v-3.76l-37.13-11.9v-14.83l37.13,16.35v-3.92l-37.13-16.35V171.4l37.13,21.24v-4.13l-37.13-21.24V149.6
			c0-0.34,0.13-0.66,0.35-0.91l36.78,26.5c0.01-0.87,0.54-1.64,1.34-1.97l1.35-0.51l-35.67-25.7l16.64-6.7l31.13,27.81l3.78-1.43
			l-31.19-27.86l14.81-5.96l27.03,29.78l3.6-1.37l-27.09-29.84l13.57-5.46l43.93,59.96l0.02-6.04l-40.52-55.31l12.78-5.14
			l27.79,47.69l0.02-7.07l-24.45-41.97l12.34-4.97l15.6,34.67l3.29-1.42l-15.57-34.59l12.22-4.92l11.81,35.86l3.31-1.42
			l-11.78-35.78l12.41-4.99l8.03,37.05l3.35-1.44l-8.01-36.96l12.93-5.2l14.25,130.63l-10.65-49.15v16.91l7.14,32.96l-7.14-21.69
			v11.47l3.75,11.38l-3.75-8.33v8.74l0.48,1.06l-0.48-0.82v63.08l0.73-1.27l-0.73,1.65v8.87l3.99-9.07l-3.99,12.46v11.74l7.4-23.1
			l-7.4,35.52v17.59l10.92-52.37l-12.79,126.48l-12.52-5.04l7.71-37.01l-3.36-1.45L222.35,412.32z M254.34,224.2L239.98,92.58
			l13.82-5.56L254.34,224.2z M253.61,38.66l0.16,40.19c-0.39,0.1-0.77,0.21-1.14,0.37l-13.51,5.44l-5.02-45.99H253.61z
			 M230.49,38.66l5.17,47.38l-13.71,5.52l-11.46-52.9H230.49z M206.82,38.66l11.76,54.26l-13.17,5.3L185.8,38.66H206.82z
			 M182.03,38.66l20.05,60.9l-12.97,5.22l-29.75-66.12H182.03z M155.43,38.66l30.35,67.46l-13.09,5.27l-42.37-72.73H155.43z
			 M126.17,38.66l43.16,74.08l-13.55,5.45L97.51,38.66H126.17z M93.07,38.66l59.28,80.92l-14.39,5.79l-78.7-86.71H93.07z
			 M51.71,38.66h2.71l79.99,88.14l-15.7,6.32l-67-59.85V38.66z M51.71,78.07L115,134.6l-16.41,6.6c-0.39,0.16-0.77,0.34-1.13,0.55
			l-45.75-32.97V78.07z M51.71,113.21l43,30.98c-1.14,1.52-1.79,3.4-1.79,5.4v13.28L51.71,139.3V113.21z M51.71,143.43l41.22,23.58
			v17.47l-41.22-18.15V143.43z M51.71,170.24l41.22,18.15v15.75l-41.22-13.21V170.24z M51.71,194.7l41.22,13.21v14.61l-41.22-8.59
			V194.7z M51.71,217.58l41.22,8.59v13.9l-41.22-4.17V217.58z M51.71,239.51l41.22,4.17v13.57l-41.22,0.16V239.51z M51.71,260.99
			l41.22-0.16v13.58l-41.22,4.5V260.99z M51.71,282.51l41.22-4.5v13.94l-41.22,8.93V282.51z M51.71,304.55l41.22-8.93v14.67
			l-41.22,13.57V304.55z M51.71,327.63l41.22-13.57v15.86l-41.22,18.55V327.63z M51.71,352.4l41.22-18.55v17.63L51.71,375.5V352.4z
			 M51.71,379.64l41.22-24.01v6.77c0,3.71,2.22,7,5.67,8.39l0.78,0.31l-47.67,34.92V379.64z M51.71,410.47l51.58-37.79l16.89,6.8
			l-68.47,62.14V410.47z M51.71,473.34v-26.88l72.17-65.5l15.07,6.07l-77.1,86.32H51.71z M66.66,473.34l75.83-84.89l13.84,5.57
			l-57.15,79.32H66.66z M103.6,473.34l56.16-77.94l13.06,5.26l-41.59,72.69H103.6z M135.36,473.34l40.81-71.34l12.64,5.09
			l-29.18,66.25H135.36z M163.53,473.34l28.59-64.91l12.54,5.05l-19.19,59.86H163.53z M189.24,473.34L208,414.82l12.76,5.13
			l-11.13,53.39H189.24z M213.3,473.34l10.84-52.03l13.31,5.36l-4.72,46.67H213.3z M236.33,473.34l4.58-45.27l11.71,4.71
			c0.82,0.33,1.68,0.54,2.54,0.62l0.16,39.94H236.33z M257.19,38.66h19.49l-4.62,45.66l-12.69-5.11c-0.66-0.26-1.34-0.44-2.03-0.54
			L257.19,38.66z M257.38,86.69l13.88,5.59l-13.33,131.9L257.38,86.69z M258.2,292.58l13.84,126.83l-13.32,5.36L258.2,292.58z
			 M258.91,473.34L258.75,433c0.21-0.07,0.42-0.13,0.62-0.22l13.53-5.44l5.02,46.01H258.91z M281.52,473.34l-5.17-47.4l13.24-5.33
			l11.42,52.72H281.52z M304.68,473.34l-11.72-54.08l12.71-5.12l19.49,59.2H304.68z M328.94,473.34L309,412.8l12.51-5.04
			l29.51,65.58H328.94z M354.96,473.34l-30.11-66.92l12.64-5.09l41.95,72H354.96z M383.58,473.34l-42.74-73.35l13.08-5.27
			l57.6,78.62H383.58z M415.97,473.34l-58.61-80l13.9-5.59l77.69,85.59H415.97z M460.29,473.34h-6.51l-78.98-87.02l15.16-6.1
			l70.33,62.82V473.34z M460.29,438.23l-66.61-59.51l17.03-6.86l49.58,35.73V438.23z M460.29,403.18l-45.74-32.95
			c2.78-1.59,4.52-4.54,4.52-7.82v-8.81l41.22,23.58V403.18z M460.29,373.04l-41.22-23.58v-17.4l41.22,18.16V373.04z M460.29,346.3
			l-41.22-18.16v-15.69l41.22,13.21V346.3z M460.29,321.9l-41.22-13.21v-14.54l41.22,8.59V321.9z M460.29,299.08l-41.22-8.59v-13.84
			l41.22,4.17V299.08z M460.29,277.21l-41.22-4.17v-13.51l41.22-0.16V277.21z M460.29,255.79l-41.22,0.16v-13.53l41.22-4.5V255.79z
			 M460.29,234.33l-41.22,4.5v-13.88l41.22-8.93V234.33z M460.29,212.34l-41.22,8.93v-14.62l41.22-13.57V212.34z M460.29,189.32
			l-41.22,13.57v-15.8l41.22-18.55V189.32z M460.29,164.61l-41.22,18.55V165.6l41.22-24.01V164.61z M460.29,137.45l-41.22,24.01
			V149.6c0-2.44-0.97-4.7-2.61-6.35l43.82-32.1V137.45z M460.29,106.7l-47.03,34.45l-17.43-7.01l64.46-58.5V106.7z M460.29,70.8
			l-68.15,61.85l-15.56-6.26l78.37-87.73h5.34V70.8z"/>
		<polygon class="st0" points="312.31,209.94 334.85,189.49 334.85,184.65 312.31,205.1 		"/>
		<polygon class="st0" points="312.31,248.07 334.85,243.19 334.85,239.53 312.31,244.41 		"/>
		<path class="st0" d="M312.31,252.88c0,0.41,0.04,0.8,0.11,1.19l22.42-2.45v-3.61l-22.53,2.46V252.88z"/>
		<path class="st0" d="M318.95,259.51h9.26c2.42,0,4.52-1.29,5.68-3.22l-20.58,0.08C314.49,258.25,316.57,259.51,318.95,259.51z"/>
		<path class="st0" d="M312.35,183.62l3.93-5.46C314.12,179.1,312.57,181.17,312.35,183.62z"/>
		<polygon class="st0" points="312.31,227.8 334.85,214.68 334.85,210.53 312.31,223.66 		"/>
		<polygon class="st0" points="312.31,241.82 334.85,234.4 334.85,230.63 312.31,238.05 		"/>
		<polygon class="st0" points="312.31,219.55 334.85,203.04 334.85,198.6 312.31,215.1 		"/>
		<polygon class="st0" points="312.31,235.13 334.85,224.99 334.85,221.06 312.31,231.2 		"/>
		<path class="st0" d="M312.31,198.34L330.48,178c-0.71-0.26-1.47-0.41-2.27-0.41h-2.18l-13.72,15.36V198.34z"/>
		<path class="st0" d="M198.99,284.91h-6.04l-15.87,7.14l0,3.93l23.35-10.51C200.06,285.13,199.55,284.91,198.99,284.91z"/>
		<path class="st0" d="M179.76,259.51h18.83c1.18,0,2.14-0.96,2.14-2.14l0-0.56l-23.11,0.09l0,0.46
			C177.62,258.55,178.58,259.51,179.76,259.51z"/>
		<polygon class="st0" points="201.13,288.44 177.09,302.45 177.09,306.59 201.13,292.58 		"/>
		<path class="st0" d="M179.23,284.91c-0.92,0-1.7,0.58-2,1.39l4.24-1.39H179.23z"/>
		<polygon class="st0" points="200.93,194.75 177.13,168.52 177.16,173.89 200.92,200.07 		"/>
		<polygon class="st0" points="201.13,296.56 177.09,314.17 177.09,318.62 201.13,301.01 		"/>
		<polygon class="st0" points="201.12,306.02 177.09,327.83 177.09,332.67 201.12,310.86 		"/>
		<polygon class="st0" points="177.09,344.33 177.09,349.72 201.11,322.82 201.12,317.44 		"/>
		<polygon class="st0" points="200.86,216.25 177.3,199.28 177.32,203.71 200.85,220.66 		"/>
		<polygon class="st0" points="200.83,224.61 177.36,211.18 177.39,215.32 200.82,228.73 		"/>
		<polygon class="st0" points="200.9,206.52 177.22,185.37 177.25,190.2 200.88,211.31 		"/>
		<polygon class="st0" points="200.79,238.72 177.47,231.25 177.49,235.01 200.77,242.48 		"/>
		<polygon class="st0" points="200.77,244.99 177.52,240.14 177.54,243.81 200.75,248.65 		"/>
		<polygon class="st0" points="200.81,232 177.42,221.7 177.44,225.62 200.8,235.91 		"/>
		<polygon class="st0" points="200.75,250.97 177.57,248.63 177.59,252.24 200.73,254.58 		"/>
	</g>
	<g>
		<path class="st1" d="M328.21,177.59h-9.26c-3.67,0-6.64,2.97-6.64,6.64v68.65c0,3.67,2.97,6.64,6.64,6.64h9.26
			c3.67,0,6.64-2.97,6.64-6.63v-68.65C334.85,180.56,331.88,177.59,328.21,177.59z"/>
		<path class="st1" d="M256,115.11l-128.51,51.73v178.32L256,396.89l128.51-51.73V166.84L256,115.11z M240.13,376.29
			c0,1.52-1.54,2.55-2.94,1.99l-34.75-14.98c-0.81-0.33-1.34-1.11-1.34-1.99l0.05-74.27c0-1.18-0.96-2.14-2.14-2.14h-19.77
			c-1.18,0-2.14,0.96-2.14,2.14l0.01,63.08c0,1.52-1.54,2.55-2.94,1.99l-35.07-13.32c-0.81-0.33-1.34-1.11-1.34-1.99v-161.6
			c0-0.88,0.53-1.66,1.34-1.99l35.07-13.32c1.41-0.57,2.94,0.47,2.94,1.99l0.53,95.48c0,1.18,0.96,2.14,2.14,2.14h18.83
			c1.18,0,2.14-0.96,2.14-2.14l0.36-106.68c0-0.88,0.53-1.66,1.34-1.99l34.75-14.98c1.41-0.57,2.95,0.47,2.95,1.99V376.29z
			 M374.27,282.76c0,1.18-0.96,2.14-2.14,2.14h-61.76c-1.18,0-2.14,0.96-2.14,2.14v76.34c0,0.88-0.53,1.66-1.34,1.99l-33.09,13.32
			c-1.41,0.57-2.94-0.47-2.94-1.99V135.3c0-1.52,1.54-2.55,2.94-1.99l34.43,13.86v0.01l28.67,11.54l36.03,14.5
			c0.81,0.33,1.34,1.11,1.34,1.99V282.76z"/>
	</g>
</g>
</svg>
